<svg xmlns="http://www.w3.org/2000/svg" viewBox="0 0 220 140" role="img" aria-labelledby="title desc">
  <title id="title">Microcontrolador</title>
  <desc id="desc">Logo vetorial estilizado de um microcontrolador em tons de vermelho e escuro.</desc>

  <defs>
    <linearGradient id="chipRed" x1="0" y1="0" x2="1" y2="1">
      <stop offset="0%" stop-color="#ff4655" />
      <stop offset="100%" stop-color="#a90f1b" />
    </linearGradient>
  </defs>

  <rect x="0" y="0" width="220" height="140" rx="22" fill="#141419" />

  <g fill="#2a2a31">
    <rect x="24" y="40" width="8" height="8" rx="2" />
    <rect x="24" y="56" width="8" height="8" rx="2" />
    <rect x="24" y="72" width="8" height="8" rx="2" />
    <rect x="24" y="88" width="8" height="8" rx="2" />

    <rect x="188" y="40" width="8" height="8" rx="2" />
    <rect x="188" y="56" width="8" height="8" rx="2" />
    <rect x="188" y="72" width="8" height="8" rx="2" />
    <rect x="188" y="88" width="8" height="8" rx="2" />

    <rect x="56" y="20" width="8" height="8" rx="2" />
    <rect x="76" y="20" width="8" height="8" rx="2" />
    <rect x="96" y="20" width="8" height="8" rx="2" />
    <rect x="116" y="20" width="8" height="8" rx="2" />
    <rect x="136" y="20" width="8" height="8" rx="2" />
    <rect x="156" y="20" width="8" height="8" rx="2" />

    <rect x="56" y="112" width="8" height="8" rx="2" />
    <rect x="76" y="112" width="8" height="8" rx="2" />
    <rect x="96" y="112" width="8" height="8" rx="2" />
    <rect x="116" y="112" width="8" height="8" rx="2" />
    <rect x="136" y="112" width="8" height="8" rx="2" />
    <rect x="156" y="112" width="8" height="8" rx="2" />
  </g>

  <rect x="42" y="30" width="136" height="80" rx="14" fill="url(#chipRed)" />
  <rect x="60" y="44" width="100" height="52" rx="10" fill="#1a1a1f" stroke="#ff8f98" stroke-width="2" />

  <g stroke="#ff6b77" stroke-width="2" stroke-linecap="round" opacity="0.85">
    <path d="M75 60h22" />
    <path d="M75 71h36" />
    <path d="M75 82h28" />
    <path d="M122 60h23" />
    <path d="M122 71h18" />
    <path d="M122 82h24" />
  </g>

  <circle cx="151" cy="52" r="4" fill="#ffb4bb" />
</svg>
